<svg width="32" height="32" viewBox="0 0 32 32" fill="none" xmlns="http://www.w3.org/2000/svg">
<path d="M31.1187 8.87692L28.2373 11.7583C27.9436 12.052 27.4685 12.052 27.1748 11.7583L20.237 4.8205C19.9432 4.52674 19.9432 4.05172 20.237 3.75796L23.1183 0.876597C24.2871 -0.292199 26.1872 -0.292199 27.3623 0.876597L31.1187 4.633C32.2938 5.80179 32.2938 7.70187 31.1187 8.87692ZM17.7618 6.23306L1.34858 22.6462L0.0235201 30.2403C-0.157738 31.2653 0.736053 32.1528 1.7611 31.9778L9.3552 30.6465L25.7685 14.2334C26.0622 13.9396 26.0622 13.4646 25.7685 13.1708L18.8306 6.23306C18.5306 5.9393 18.0556 5.9393 17.7618 6.23306V6.23306ZM7.75513 21.2399C7.41136 20.8961 7.41136 20.3461 7.75513 20.0024L17.3806 10.377C17.7243 10.0332 18.2744 10.0332 18.6181 10.377C18.9619 10.7207 18.9619 11.2708 18.6181 11.6145L8.99269 21.2399C8.64892 21.5837 8.09889 21.5837 7.75513 21.2399V21.2399ZM5.49877 26.4964H8.49891V28.7652L4.46748 29.4715L2.52364 27.5277L3.22992 23.4962H5.49877V26.4964Z" fill="#B2BEC3"/>
</svg>
