<svg width="25" height="24" viewBox="0 0 25 24" fill="none" xmlns="http://www.w3.org/2000/svg">
<path d="M23.0816 9.42857H15.0918V1.71429C15.0918 0.767679 14.2967 0 13.3163 0H11.5408C10.5604 0 9.76531 0.767679 9.76531 1.71429V9.42857H1.77551C0.795096 9.42857 0 10.1963 0 11.1429V12.8571C0 13.8038 0.795096 14.5714 1.77551 14.5714H9.76531V22.2857C9.76531 23.2323 10.5604 24 11.5408 24H13.3163C14.2967 24 15.0918 23.2323 15.0918 22.2857V14.5714H23.0816C24.062 14.5714 24.8571 13.8038 24.8571 12.8571V11.1429C24.8571 10.1963 24.062 9.42857 23.0816 9.42857Z" fill="white"/>
</svg>
