<svg width="19" height="18" viewBox="0 0 19 18" fill="none" xmlns="http://www.w3.org/2000/svg">
<path d="M17.3112 7.07143H11.3189V1.28571C11.3189 0.575759 10.7226 0 9.98724 0H8.65561C7.9203 0 7.32398 0.575759 7.32398 1.28571V7.07143H1.33163C0.596322 7.07143 0 7.64719 0 8.35714V9.64286C0 10.3528 0.596322 10.9286 1.33163 10.9286H7.32398V16.7143C7.32398 17.4242 7.9203 18 8.65561 18H9.98724C10.7226 18 11.3189 17.4242 11.3189 16.7143V10.9286H17.3112C18.0465 10.9286 18.6429 10.3528 18.6429 9.64286V8.35714C18.6429 7.64719 18.0465 7.07143 17.3112 7.07143Z" fill="white"/>
</svg>
