<svg width="28" height="32" viewBox="0 0 28 32" fill="none" xmlns="http://www.w3.org/2000/svg">
<path d="M2 29C2 29.7957 2.31607 30.5587 2.87868 31.1213C3.44129 31.6839 4.20435 32 5 32H23C23.7956 32 24.5587 31.6839 25.1213 31.1213C25.6839 30.5587 26 29.7957 26 29V8.00001H2V29ZM19 13C19 12.7348 19.1053 12.4804 19.2929 12.2929C19.4804 12.1054 19.7348 12 20 12C20.2652 12 20.5196 12.1054 20.7071 12.2929C20.8946 12.4804 21 12.7348 21 13V27C21 27.2652 20.8946 27.5196 20.7071 27.7071C20.5196 27.8946 20.2652 28 20 28C19.7348 28 19.4804 27.8946 19.2929 27.7071C19.1053 27.5196 19 27.2652 19 27V13ZM13 13C13 12.7348 13.1054 12.4804 13.2929 12.2929C13.4804 12.1054 13.7348 12 14 12C14.2652 12 14.5196 12.1054 14.7071 12.2929C14.8946 12.4804 15 12.7348 15 13V27C15 27.2652 14.8946 27.5196 14.7071 27.7071C14.5196 27.8946 14.2652 28 14 28C13.7348 28 13.4804 27.8946 13.2929 27.7071C13.1054 27.5196 13 27.2652 13 27V13ZM7 13C7 12.7348 7.10535 12.4804 7.29289 12.2929C7.48043 12.1054 7.73478 12 8 12C8.26521 12 8.51957 12.1054 8.7071 12.2929C8.89464 12.4804 9 12.7348 9 13V27C9 27.2652 8.89464 27.5196 8.7071 27.7071C8.51957 27.8946 8.26521 28 8 28C7.73478 28 7.48043 27.8946 7.29289 27.7071C7.10535 27.5196 7 27.2652 7 27V13ZM27 2.00001H19.5L18.9125 0.831261C18.788 0.581395 18.5963 0.371213 18.3589 0.22436C18.1215 0.0775073 17.8479 -0.000189248 17.5687 1.09579e-05H10.425C10.1465 -0.0010597 9.8733 0.0763472 9.63675 0.223363C9.4002 0.370379 9.20984 0.581057 9.0875 0.831261L8.5 2.00001H1C0.734783 2.00001 0.480429 2.10537 0.292893 2.2929C0.105357 2.48044 0 2.73479 0 3.00001L0 5.00001C0 5.26523 0.105357 5.51958 0.292893 5.70712C0.480429 5.89465 0.734783 6.00001 1 6.00001H27C27.2652 6.00001 27.5196 5.89465 27.7071 5.70712C27.8946 5.51958 28 5.26523 28 5.00001V3.00001C28 2.73479 27.8946 2.48044 27.7071 2.2929C27.5196 2.10537 27.2652 2.00001 27 2.00001V2.00001Z" fill="#B2BEC3"/>
</svg>
