<svg width="16" height="18" viewBox="0 0 16 18" fill="none" xmlns="http://www.w3.org/2000/svg">
<path d="M1.125 16.3125C1.125 16.7601 1.30279 17.1893 1.61926 17.5057C1.93572 17.8222 2.36495 18 2.8125 18H12.9375C13.385 18 13.8143 17.8222 14.1307 17.5057C14.4472 17.1893 14.625 16.7601 14.625 16.3125V4.5H1.125V16.3125ZM10.6875 7.3125C10.6875 7.16332 10.7468 7.02025 10.8522 6.91476C10.9577 6.80927 11.1008 6.75 11.25 6.75C11.3992 6.75 11.5423 6.80927 11.6477 6.91476C11.7532 7.02025 11.8125 7.16332 11.8125 7.3125V15.1875C11.8125 15.3367 11.7532 15.4798 11.6477 15.5852C11.5423 15.6907 11.3992 15.75 11.25 15.75C11.1008 15.75 10.9577 15.6907 10.8522 15.5852C10.7468 15.4798 10.6875 15.3367 10.6875 15.1875V7.3125ZM7.3125 7.3125C7.3125 7.16332 7.37176 7.02025 7.47725 6.91476C7.58274 6.80927 7.72581 6.75 7.875 6.75C8.02418 6.75 8.16726 6.80927 8.27274 6.91476C8.37823 7.02025 8.4375 7.16332 8.4375 7.3125V15.1875C8.4375 15.3367 8.37823 15.4798 8.27274 15.5852C8.16726 15.6907 8.02418 15.75 7.875 15.75C7.72581 15.75 7.58274 15.6907 7.47725 15.5852C7.37176 15.4798 7.3125 15.3367 7.3125 15.1875V7.3125ZM3.9375 7.3125C3.9375 7.16332 3.99676 7.02025 4.10225 6.91476C4.20774 6.80927 4.35081 6.75 4.5 6.75C4.64918 6.75 4.79226 6.80927 4.89775 6.91476C5.00324 7.02025 5.0625 7.16332 5.0625 7.3125V15.1875C5.0625 15.3367 5.00324 15.4798 4.89775 15.5852C4.79226 15.6907 4.64918 15.75 4.5 15.75C4.35081 15.75 4.20774 15.6907 4.10225 15.5852C3.99676 15.4798 3.9375 15.3367 3.9375 15.1875V7.3125ZM15.1875 1.12501H10.9687L10.6383 0.467584C10.5683 0.327034 10.4604 0.208807 10.3269 0.126202C10.1934 0.0435979 10.0394 -0.000106452 9.88242 6.16384e-06H5.86406C5.7074 -0.000596081 5.55373 0.0429453 5.42067 0.125642C5.28761 0.208338 5.18054 0.326845 5.11172 0.467584L4.78125 1.12501H0.5625C0.413316 1.12501 0.270242 1.18427 0.164752 1.28976C0.0592632 1.39525 0 1.53832 0 1.68751L0 2.81251C0 2.96169 0.0592632 3.10476 0.164752 3.21025C0.270242 3.31574 0.413316 3.37501 0.5625 3.37501H15.1875C15.3367 3.37501 15.4798 3.31574 15.5852 3.21025C15.6907 3.10476 15.75 2.96169 15.75 2.81251V1.68751C15.75 1.53832 15.6907 1.39525 15.5852 1.28976C15.4798 1.18427 15.3367 1.12501 15.1875 1.12501V1.12501Z" fill="#636e72"/>
</svg>
